<svg xmlns="http://www.w3.org/2000/svg" width="760" height="400" viewBox="0 0 760 400" font-family="Georgia, serif">
<rect width="760" height="400" fill="#fbfaf7"/>
<line x1="34.0" y1="346.0" x2="334.0" y2="246.0" stroke="#c8462f" stroke-width="1.4" opacity="0.75"/>
<rect x="32.40" y="344.40" width="3.2" height="3.2" fill="#4a4a48"/>
<rect x="132.40" y="344.40" width="3.2" height="3.2" fill="#4a4a48"/>
<rect x="32.40" y="244.40" width="3.2" height="3.2" fill="#4a4a48"/>
<rect x="65.73" y="344.40" width="3.2" height="3.2" fill="#4a4a48"/>
<rect x="165.73" y="344.40" width="3.2" height="3.2" fill="#4a4a48"/>
<rect x="65.73" y="244.40" width="3.2" height="3.2" fill="#4a4a48"/>
<rect x="32.40" y="311.07" width="3.2" height="3.2" fill="#4a4a48"/>
<rect x="132.40" y="311.07" width="3.2" height="3.2" fill="#c8462f"/>
<rect x="32.40" y="211.07" width="3.2" height="3.2" fill="#4a4a48"/>
<rect x="43.51" y="344.40" width="3.2" height="3.2" fill="#4a4a48"/>
<rect x="143.51" y="344.40" width="3.2" height="3.2" fill="#4a4a48"/>
<rect x="43.51" y="244.40" width="3.2" height="3.2" fill="#4a4a48"/>
<rect x="76.84" y="344.40" width="3.2" height="3.2" fill="#4a4a48"/>
<rect x="176.84" y="344.40" width="3.2" height="3.2" fill="#4a4a48"/>
<rect x="76.84" y="244.40" width="3.2" height="3.2" fill="#4a4a48"/>
<rect x="43.51" y="311.07" width="3.2" height="3.2" fill="#4a4a48"/>
<rect x="143.51" y="311.07" width="3.2" height="3.2" fill="#4a4a48"/>
<rect x="43.51" y="211.07" width="3.2" height="3.2" fill="#4a4a48"/>
<rect x="32.40" y="333.29" width="3.2" height="3.2" fill="#4a4a48"/>
<rect x="132.40" y="333.29" width="3.2" height="3.2" fill="#4a4a48"/>
<rect x="32.40" y="233.29" width="3.2" height="3.2" fill="#4a4a48"/>
<rect x="65.73" y="333.29" width="3.2" height="3.2" fill="#c8462f"/>
<rect x="165.73" y="333.29" width="3.2" height="3.2" fill="#4a4a48"/>
<rect x="65.73" y="233.29" width="3.2" height="3.2" fill="#4a4a48"/>
<rect x="32.40" y="299.96" width="3.2" height="3.2" fill="#4a4a48"/>
<rect x="132.40" y="299.96" width="3.2" height="3.2" fill="#4a4a48"/>
<rect x="32.40" y="199.96" width="3.2" height="3.2" fill="#4a4a48"/>
<rect x="36.10" y="344.40" width="3.2" height="3.2" fill="#4a4a48"/>
<rect x="136.10" y="344.40" width="3.2" height="3.2" fill="#4a4a48"/>
<rect x="36.10" y="244.40" width="3.2" height="3.2" fill="#4a4a48"/>
<rect x="69.44" y="344.40" width="3.2" height="3.2" fill="#4a4a48"/>
<rect x="169.44" y="344.40" width="3.2" height="3.2" fill="#4a4a48"/>
<rect x="69.44" y="244.40" width="3.2" height="3.2" fill="#4a4a48"/>
<rect x="36.10" y="311.07" width="3.2" height="3.2" fill="#4a4a48"/>
<rect x="136.10" y="311.07" width="3.2" height="3.2" fill="#4a4a48"/>
<rect x="36.10" y="211.07" width="3.2" height="3.2" fill="#4a4a48"/>
<rect x="47.21" y="344.40" width="3.2" height="3.2" fill="#4a4a48"/>
<rect x="147.21" y="344.40" width="3.2" height="3.2" fill="#4a4a48"/>
<rect x="47.21" y="244.40" width="3.2" height="3.2" fill="#4a4a48"/>
<rect x="80.55" y="344.40" width="3.2" height="3.2" fill="#4a4a48"/>
<rect x="180.55" y="344.40" width="3.2" height="3.2" fill="#4a4a48"/>
<rect x="80.55" y="244.40" width="3.2" height="3.2" fill="#4a4a48"/>
<rect x="47.21" y="311.07" width="3.2" height="3.2" fill="#4a4a48"/>
<rect x="147.21" y="311.07" width="3.2" height="3.2" fill="#4a4a48"/>
<rect x="47.21" y="211.07" width="3.2" height="3.2" fill="#4a4a48"/>
<rect x="36.10" y="333.29" width="3.2" height="3.2" fill="#4a4a48"/>
<rect x="136.10" y="333.29" width="3.2" height="3.2" fill="#4a4a48"/>
<rect x="36.10" y="233.29" width="3.2" height="3.2" fill="#4a4a48"/>
<rect x="69.44" y="333.29" width="3.2" height="3.2" fill="#4a4a48"/>
<rect x="169.44" y="333.29" width="3.2" height="3.2" fill="#4a4a48"/>
<rect x="69.44" y="233.29" width="3.2" height="3.2" fill="#4a4a48"/>
<rect x="36.10" y="299.96" width="3.2" height="3.2" fill="#4a4a48"/>
<rect x="136.10" y="299.96" width="3.2" height="3.2" fill="#4a4a48"/>
<rect x="36.10" y="199.96" width="3.2" height="3.2" fill="#4a4a48"/>
<rect x="32.40" y="340.70" width="3.2" height="3.2" fill="#4a4a48"/>
<rect x="132.40" y="340.70" width="3.2" height="3.2" fill="#4a4a48"/>
<rect x="32.40" y="240.70" width="3.2" height="3.2" fill="#4a4a48"/>
<rect x="65.73" y="340.70" width="3.2" height="3.2" fill="#4a4a48"/>
<rect x="165.73" y="340.70" width="3.2" height="3.2" fill="#4a4a48"/>
<rect x="65.73" y="240.70" width="3.2" height="3.2" fill="#4a4a48"/>
<rect x="32.40" y="307.36" width="3.2" height="3.2" fill="#4a4a48"/>
<rect x="132.40" y="307.36" width="3.2" height="3.2" fill="#4a4a48"/>
<rect x="32.40" y="207.36" width="3.2" height="3.2" fill="#4a4a48"/>
<rect x="43.51" y="340.70" width="3.2" height="3.2" fill="#c8462f"/>
<rect x="143.51" y="340.70" width="3.2" height="3.2" fill="#4a4a48"/>
<rect x="43.51" y="240.70" width="3.2" height="3.2" fill="#4a4a48"/>
<rect x="76.84" y="340.70" width="3.2" height="3.2" fill="#4a4a48"/>
<rect x="176.84" y="340.70" width="3.2" height="3.2" fill="#4a4a48"/>
<rect x="76.84" y="240.70" width="3.2" height="3.2" fill="#4a4a48"/>
<rect x="43.51" y="307.36" width="3.2" height="3.2" fill="#4a4a48"/>
<rect x="143.51" y="307.36" width="3.2" height="3.2" fill="#c8462f"/>
<rect x="43.51" y="207.36" width="3.2" height="3.2" fill="#4a4a48"/>
<rect x="32.40" y="329.59" width="3.2" height="3.2" fill="#4a4a48"/>
<rect x="132.40" y="329.59" width="3.2" height="3.2" fill="#4a4a48"/>
<rect x="32.40" y="229.59" width="3.2" height="3.2" fill="#4a4a48"/>
<rect x="65.73" y="329.59" width="3.2" height="3.2" fill="#4a4a48"/>
<rect x="165.73" y="329.59" width="3.2" height="3.2" fill="#4a4a48"/>
<rect x="65.73" y="229.59" width="3.2" height="3.2" fill="#4a4a48"/>
<rect x="32.40" y="296.25" width="3.2" height="3.2" fill="#4a4a48"/>
<rect x="132.40" y="296.25" width="3.2" height="3.2" fill="#4a4a48"/>
<rect x="32.40" y="196.25" width="3.2" height="3.2" fill="#4a4a48"/>
<circle cx="45.11" cy="342.30" r="4.6" fill="none" stroke="#c8462f" stroke-width="1.4"/>
<circle cx="67.33" cy="334.89" r="4.6" fill="none" stroke="#c8462f" stroke-width="1.4"/>
<circle cx="134.00" cy="312.67" r="4.6" fill="none" stroke="#c8462f" stroke-width="1.4"/>
<circle cx="145.11" cy="308.96" r="4.6" fill="none" stroke="#c8462f" stroke-width="1.4"/>
<text x="34.0" y="36.0" font-size="15" fill="#2b2b29">the gasket, level 4</text>
<text x="34.0" y="366.0" font-size="13" fill="#7a4034">the ray (3,1) carries 4 points</text>
<line x1="426.0" y1="346.0" x2="426.0" y2="46.0" stroke="#2f5fa8" stroke-width="0.7" opacity="0.35"/>
<line x1="426.0" y1="346.0" x2="451.0" y2="46.0" stroke="#2f5fa8" stroke-width="0.7" opacity="0.35"/>
<line x1="426.0" y1="346.0" x2="468.9" y2="46.0" stroke="#2f5fa8" stroke-width="0.7" opacity="0.35"/>
<line x1="426.0" y1="346.0" x2="516.0" y2="46.0" stroke="#2f5fa8" stroke-width="0.7" opacity="0.35"/>
<line x1="426.0" y1="346.0" x2="559.3" y2="46.0" stroke="#2f5fa8" stroke-width="0.7" opacity="0.35"/>
<line x1="426.0" y1="346.0" x2="562.4" y2="46.0" stroke="#2f5fa8" stroke-width="0.7" opacity="0.35"/>
<line x1="426.0" y1="346.0" x2="538.5" y2="46.0" stroke="#2f5fa8" stroke-width="0.7" opacity="0.35"/>
<line x1="426.0" y1="346.0" x2="566.0" y2="46.0" stroke="#2f5fa8" stroke-width="0.7" opacity="0.35"/>
<line x1="426.0" y1="346.0" x2="567.2" y2="46.0" stroke="#2f5fa8" stroke-width="0.7" opacity="0.35"/>
<line x1="426.0" y1="346.0" x2="726.0" y2="212.7" stroke="#2f5fa8" stroke-width="0.7" opacity="0.35"/>
<line x1="426.0" y1="346.0" x2="726.0" y2="256.0" stroke="#2f5fa8" stroke-width="0.7" opacity="0.35"/>
<line x1="426.0" y1="346.0" x2="726.0" y2="209.6" stroke="#2f5fa8" stroke-width="0.7" opacity="0.35"/>
<line x1="426.0" y1="346.0" x2="726.0" y2="321.0" stroke="#2f5fa8" stroke-width="0.7" opacity="0.35"/>
<line x1="426.0" y1="346.0" x2="726.0" y2="346.0" stroke="#2f5fa8" stroke-width="0.7" opacity="0.35"/>
<line x1="426.0" y1="346.0" x2="726.0" y2="303.1" stroke="#2f5fa8" stroke-width="0.7" opacity="0.35"/>
<line x1="426.0" y1="346.0" x2="726.0" y2="206.0" stroke="#2f5fa8" stroke-width="0.7" opacity="0.35"/>
<line x1="426.0" y1="346.0" x2="726.0" y2="233.5" stroke="#2f5fa8" stroke-width="0.7" opacity="0.35"/>
<line x1="426.0" y1="346.0" x2="726.0" y2="204.8" stroke="#2f5fa8" stroke-width="0.7" opacity="0.35"/>
<line x1="426.0" y1="346.0" x2="671.5" y2="46.0" stroke="#2f5fa8" stroke-width="0.7" opacity="0.35"/>
<line x1="426.0" y1="346.0" x2="697.4" y2="46.0" stroke="#2f5fa8" stroke-width="0.7" opacity="0.35"/>
<line x1="426.0" y1="346.0" x2="686.9" y2="46.0" stroke="#2f5fa8" stroke-width="0.7" opacity="0.35"/>
<line x1="426.0" y1="346.0" x2="726.0" y2="74.6" stroke="#2f5fa8" stroke-width="0.7" opacity="0.35"/>
<line x1="426.0" y1="346.0" x2="726.0" y2="100.5" stroke="#2f5fa8" stroke-width="0.7" opacity="0.35"/>
<line x1="426.0" y1="346.0" x2="726.0" y2="85.1" stroke="#2f5fa8" stroke-width="0.7" opacity="0.35"/>
<line x1="426.0" y1="346.0" x2="714.0" y2="46.0" stroke="#2f5fa8" stroke-width="0.7" opacity="0.35"/>
<line x1="426.0" y1="346.0" x2="726.0" y2="58.0" stroke="#2f5fa8" stroke-width="0.7" opacity="0.35"/>
<line x1="426.0" y1="346.0" x2="726.0" y2="46.0" stroke="#2f5fa8" stroke-width="0.7" opacity="0.35"/>
<circle cx="426.00" cy="201.56" r="3.1" fill="#2f5fa8"/>
<circle cx="437.11" cy="212.67" r="3.1" fill="#2f5fa8"/>
<circle cx="448.22" cy="190.44" r="3.1" fill="#2f5fa8"/>
<circle cx="459.33" cy="234.89" r="3.1" fill="#2f5fa8"/>
<circle cx="470.44" cy="246.00" r="3.1" fill="#2f5fa8"/>
<circle cx="481.56" cy="223.78" r="3.1" fill="#2f5fa8"/>
<circle cx="492.67" cy="168.22" r="3.1" fill="#2f5fa8"/>
<circle cx="503.78" cy="179.33" r="3.1" fill="#2f5fa8"/>
<circle cx="514.89" cy="157.11" r="3.1" fill="#2f5fa8"/>
<circle cx="526.00" cy="301.56" r="3.1" fill="#2f5fa8"/>
<circle cx="537.11" cy="312.67" r="3.1" fill="#2f5fa8"/>
<circle cx="548.22" cy="290.44" r="3.1" fill="#2f5fa8"/>
<circle cx="559.33" cy="334.89" r="3.1" fill="#2f5fa8"/>
<circle cx="570.44" cy="346.00" r="3.1" fill="#2f5fa8"/>
<circle cx="581.56" cy="323.78" r="3.1" fill="#2f5fa8"/>
<circle cx="592.67" cy="268.22" r="3.1" fill="#2f5fa8"/>
<circle cx="603.78" cy="279.33" r="3.1" fill="#2f5fa8"/>
<circle cx="614.89" cy="257.11" r="3.1" fill="#2f5fa8"/>
<circle cx="626.00" cy="101.56" r="3.1" fill="#2f5fa8"/>
<circle cx="637.11" cy="112.67" r="3.1" fill="#2f5fa8"/>
<circle cx="648.22" cy="90.44" r="3.1" fill="#2f5fa8"/>
<circle cx="659.33" cy="134.89" r="3.1" fill="#2f5fa8"/>
<circle cx="670.44" cy="146.00" r="3.1" fill="#2f5fa8"/>
<circle cx="681.56" cy="123.78" r="3.1" fill="#2f5fa8"/>
<circle cx="692.67" cy="68.22" r="3.1" fill="#2f5fa8"/>
<circle cx="703.78" cy="79.33" r="3.1" fill="#2f5fa8"/>
<circle cx="714.89" cy="57.11" r="3.1" fill="#2f5fa8"/>
<text x="426.0" y="36.0" font-size="15" fill="#2b2b29">a diagonal design, level 3</text>
<text x="426.0" y="366.0" font-size="13" fill="#2f5fa8">27 points, 27 rays, no two shared</text>
</svg>