<svg xmlns="http://www.w3.org/2000/svg" viewBox="0 0 520 470" width="520" height="470">
<rect width="520" height="470" fill="#ffffff"/>
<rect x="136.0" y="56.0" width="114.0" height="352.0" fill="#bababf" opacity="0.45"/>
<rect x="136.0" y="196.7" width="114.0" height="17.6" fill="#ff3d40" opacity="0.30"/>
<line x1="136.0" y1="56.0" x2="136.0" y2="408.0" stroke="#008cff" stroke-width="1.2"/>
<circle cx="136.0" cy="408.0" r="2.6" fill="#008cff"/>
<circle cx="136.0" cy="357.7" r="2.6" fill="#008cff"/>
<circle cx="136.0" cy="307.3" r="2.6" fill="#008cff"/>
<circle cx="136.0" cy="257.0" r="2.6" fill="#008cff"/>
<circle cx="136.0" cy="206.7" r="2.6" fill="#008cff"/>
<circle cx="136.0" cy="156.4" r="2.6" fill="#008cff"/>
<circle cx="136.0" cy="106.0" r="2.6" fill="#008cff"/>
<rect x="141.9" y="150.8" width="11.0" height="11.0" fill="none" stroke="#ff3d40" stroke-width="0.6"/>
<circle cx="147.4" cy="156.3" r="4.2" fill="#ff3d40"/>
<line x1="60.0" y1="408.0" x2="250.0" y2="408.0" stroke="#bababf" stroke-width="0.6"/>
<rect x="388.0" y="56.0" width="114.0" height="352.0" fill="#bababf" opacity="0.45"/>
<line x1="388.0" y1="56.0" x2="388.0" y2="408.0" stroke="#008cff" stroke-width="1.2"/>
<circle cx="388.0" cy="408.0" r="2.6" fill="#008cff"/>
<circle cx="324.7" cy="283.6" r="4.2" fill="#8e8e93"/>
<circle cx="324.7" cy="223.0" r="4.2" fill="#8e8e93"/>
<circle cx="324.7" cy="187.9" r="4.2" fill="#8e8e93"/>
<circle cx="324.7" cy="140.3" r="4.2" fill="#8e8e93"/>
<circle cx="324.7" cy="118.2" r="4.2" fill="#8e8e93"/>
<circle cx="324.7" cy="77.2" r="4.2" fill="#8e8e93"/>
<line x1="312.0" y1="408.0" x2="502.0" y2="408.0" stroke="#bababf" stroke-width="0.6"/>
<text x="60.0" y="46.0" font-family="Helvetica,Arial,sans-serif" font-size="10" fill="#000000" text-anchor="start" font-weight="bold">base 3, digits {0,1}</text>
<text x="312.0" y="46.0" font-family="Helvetica,Arial,sans-serif" font-size="10" fill="#000000" text-anchor="start" font-weight="bold">base 2, every digit</text>
<text x="60.0" y="424.0" font-family="Helvetica,Arial,sans-serif" font-size="9" fill="#8e8e93" text-anchor="start">abscissa 0.630930, 2 zeros to the right</text>
<text x="312.0" y="424.0" font-family="Helvetica,Arial,sans-serif" font-size="9" fill="#8e8e93" text-anchor="start">abscissa 1, none to the right</text>
<text x="60.0" y="438.0" font-family="Helvetica,Arial,sans-serif" font-size="9" fill="#8e8e93" text-anchor="start">poles on the abscissa, period 5.719202</text>
<text x="312.0" y="438.0" font-family="Helvetica,Arial,sans-serif" font-size="9" fill="#8e8e93" text-anchor="start">6 zeros on Re s = 1/2, all to the left</text>
<text x="36.0" y="50.0" font-family="Helvetica,Arial,sans-serif" font-size="8" fill="#8e8e93" text-anchor="start">Im s = 40</text>
<text x="36.0" y="411.0" font-family="Helvetica,Arial,sans-serif" font-size="8" fill="#8e8e93" text-anchor="start">Im s = 0</text>
</svg>
